<svg width="206" height="208" viewBox="0 0 206 208" fill="none" xmlns="http://www.w3.org/2000/svg">
<g clip-path="url(#clip0_215_163)">
<path d="M4.39597 102.755C4.39114 120.231 8.94889 137.295 17.6154 152.336L3.56714 203.725L56.0585 189.935C70.577 197.854 86.8438 202.003 103.374 202.004H103.418C157.987 202.004 202.409 157.516 202.432 102.833C202.442 76.336 192.152 51.4196 173.456 32.6738C154.763 13.9296 129.902 3.60133 103.414 3.58923C48.8373 3.58923 4.4193 48.0754 4.39677 102.755" fill="url(#paint0_linear_215_163)"/>
<path d="M0.861016 102.723C0.855383 120.828 5.57648 138.502 14.552 154.081L0 207.312L54.3735 193.029C69.3552 201.213 86.2231 205.527 103.387 205.534H103.431C159.959 205.534 205.976 159.445 206 102.805C206.01 75.3557 195.349 49.5435 175.985 30.1261C156.619 10.7112 130.869 0.0112868 103.431 0C46.894 0 0.883547 46.0825 0.861016 102.723ZM33.2424 151.398L31.2122 148.169C22.6777 134.574 18.1731 118.862 18.1795 102.729C18.1972 55.6513 56.4392 17.3495 103.464 17.3495C126.236 17.3591 147.638 26.2531 163.735 42.3901C179.831 58.5286 188.688 79.9816 188.682 102.799C188.661 149.877 150.419 188.184 103.431 188.184H103.398C88.098 188.176 73.093 184.059 60.0072 176.28L56.893 174.43L24.6267 182.905L33.2424 151.398Z" fill="url(#paint1_linear_215_163)"/>
<path d="M77.7955 59.7783C75.8755 55.503 73.8549 55.4167 72.0291 55.3417C70.534 55.2772 68.8248 55.2821 67.1173 55.2821C65.4081 55.2821 62.6312 55.9262 60.2839 58.494C57.9342 61.0641 51.3132 67.2751 51.3132 79.9075C51.3132 92.5399 60.4971 104.749 61.7774 106.464C63.0593 108.175 79.5071 134.928 105.556 145.22C127.206 153.773 131.611 152.072 136.31 151.643C141.009 151.216 151.473 145.434 153.608 139.438C155.745 133.443 155.745 128.305 155.104 127.231C154.464 126.161 152.755 125.518 150.192 124.235C147.629 122.951 135.028 116.739 132.679 115.882C130.33 115.026 128.621 114.598 126.912 117.169C125.203 119.736 120.295 125.518 118.799 127.231C117.305 128.947 115.809 129.161 113.247 127.876C110.682 126.588 102.429 123.88 92.6364 115.134C85.0176 108.328 79.874 99.9231 78.3789 97.3521C76.8838 94.7851 78.2188 93.3936 79.5039 92.1142C80.6554 90.9637 82.0676 89.1159 83.3503 87.6172C84.6281 86.1177 85.0546 85.0478 85.9092 83.3355C86.7645 81.6215 86.3365 80.1219 85.6967 78.8377C85.0546 77.5534 80.0744 64.8549 77.7955 59.7783Z" fill="white"/>
</g>
<defs>
<linearGradient id="paint0_linear_215_163" x1="103" y1="203.725" x2="103" y2="3.58923" gradientUnits="userSpaceOnUse">
<stop stop-color="#1FAF38"/>
<stop offset="1" stop-color="#60D669"/>
</linearGradient>
<linearGradient id="paint1_linear_215_163" x1="103" y1="207.312" x2="103" y2="0" gradientUnits="userSpaceOnUse">
<stop stop-color="#F9F9F9"/>
<stop offset="1" stop-color="white"/>
</linearGradient>
<clipPath id="clip0_215_163">
<rect width="206" height="208" fill="white"/>
</clipPath>
</defs>
</svg>
